<svg xmlns="http://www.w3.org/2000/svg" xmlns:xlink="http://www.w3.org/1999/xlink" style="isolation:isolate" width="3442.592" height="3442.603" viewBox="0 0 2581.944 2581.952"><defs><clipPath id="_clipPath_oJUcgJL6BDfzSWBpMFU7cdGehdctjbn1"><rect width="2581.944" height="2581.952"/></clipPath></defs><g clip-path="url(#_clipPath_oJUcgJL6BDfzSWBpMFU7cdGehdctjbn1)"><g><path fill="#424242" stroke="#E0E0E0" stroke-linecap="butt" stroke-linejoin="miter" stroke-miterlimit="10" stroke-width="49.994" d="M 2331.971 1290.976 C 2332.269 1469.486 2286.429 1645.043 2198.895 1800.619 C 2064.78 2039.042 1839.466 2219.302 1570.256 2294.094 C 1479.308 2319.311 1385.356 2332.057 1290.977 2331.98 L 1290.977 2331.98 C 716.041 2331.98 249.973 1865.902 249.973 1290.976 C 249.79 1151.788 277.612 1013.985 331.784 885.771 C 489.806 512.143 859.775 249.972 1290.967 249.972 L 1290.967 249.972 C 1865.903 249.972 2331.971 716.05 2331.971 1290.976 Z" vector-effect="non-scaling-stroke"/><rect width="303.786" height="303.786" x="1139.081" y="955.613" fill="#FFCA28" transform="matrix(0.707,-0.707,0.707,0.707,-405.008,1237.238)"/><rect width="419.783" height="116.037" x="708.172" y="1289.632" fill="#E0E0E0" transform="matrix(0.707,-0.707,0.707,0.707,-684.039,1043.886)"/><rect width="419.783" height="116.037" x="840.936" y="1422.398" fill="#E0E0E0" transform="matrix(0.707,-0.707,0.707,0.707,-739.032,1176.651)"/><rect width="419.783" height="116.037" x="1321.238" y="1422.401" fill="#E0E0E0" transform="matrix(-0.707,-0.707,0.707,-0.707,1566.987,3609.906)"/><rect width="419.783" height="116.037" x="1453.994" y="1289.635" fill="#E0E0E0" transform="matrix(-0.707,-0.707,0.707,-0.707,1887.495,3477.134)"/><rect width="187.749" height="187.749" x="1197.089" y="1462.614" fill="#FFCA28" transform="matrix(0.707,-0.707,0.707,0.707,-722.489,1368.734)"/></g></g></svg>